<svg xmlns="http://www.w3.org/2000/svg" viewBox="0 0 1477.92 1472.58"><defs><style>.cls-1{fill:#4caf50;}</style></defs><title>ducky</title><g id="Layer_2" data-name="Layer 2"><path class="cls-1" d="M284.12,354.66S386.66,15.71,751.25,15.71,1207,346.12,1207,474.29c0,121.25-56.07,196.62-117.59,247.81a5.82,5.82,0,0,0,3.27,10.3c28.82,2.29,96.16.39,140-58.72,57-76.9,133.87-42.72,133.87-42.72S1489,659.43,1489,924.32s-142.42,564-677.9,564c-356.56,0-508.53-120-570.28-237.15-34.53-65.52-39-129.44-39.26-158.77C199.79,902,355.07,778,380.61,758.23c32.77-23.49,39-32.55,37.2-36.1-6-11.93-94.9,29.87-195.28,29.87-110,0-184.78-108.59-85.45-166.27,0,0-126-79-126-172s89.72-83.31,89.72-83.31S224,390.62,284.12,354.66Z" transform="translate(-11.04 -15.71)"/><path class="cls-1" d="M221,586.67" transform="translate(-11.04 -15.71)"/></g></svg>